<svg width="45" height="47" viewBox="0 0 45 47" fill="none" xmlns="http://www.w3.org/2000/svg">
<path d="M44.0534 0.0166016L41.2534 0.949935C36.4547 2.61721 31.3304 3.12884 26.2967 2.44327C21.0074 1.62243 15.5936 2.35184 10.7101 4.54327C8.12119 5.64564 5.84916 7.37807 4.10085 9.58282C2.35253 11.7876 1.18346 14.3946 0.700073 17.1666C0.208365 19.8323 0.258663 22.5698 0.847968 25.2156C1.43727 27.8615 2.55351 30.3615 4.13007 32.5666C3.99007 33.0566 3.85007 33.5466 3.73341 34.0366C2.7857 38.0663 2.3158 42.1936 2.33341 46.3333H7.00007C7.2194 42.9449 7.67945 39.5764 8.37674 36.2533C11.6141 38.0014 15.2446 38.893 18.9234 38.8433C22.3545 38.8409 25.7503 38.1506 28.9101 36.8133C46.6667 29.2299 44.3334 4.0066 44.3334 2.9566L44.0534 0.0166016ZM27.0901 32.5199C21.0001 35.1099 13.7201 34.6666 9.63674 31.4699C10.3269 29.1623 11.2739 26.9395 12.4601 24.8433C13.3822 23.3346 14.4701 21.9336 15.7034 20.6666C16.9636 19.386 18.383 18.2725 19.9267 17.3533C23.1166 15.4459 26.6542 14.1926 30.3334 13.6666V11.3333C26.1002 11.1867 21.893 12.0506 18.0601 13.8533C14.1411 15.7655 10.8175 18.71 8.44674 22.3699C7.56747 23.7678 6.78776 25.2258 6.11341 26.7333C5.03196 23.9668 4.7254 20.9577 5.22674 18.0299C5.55521 15.9802 6.40017 14.0478 7.68199 12.4149C8.96381 10.782 10.6403 9.5024 12.5534 8.6966C15.3432 7.39264 18.3873 6.72325 21.4667 6.7366C22.9134 6.7366 24.3367 6.8766 25.8301 6.99327C30.5068 7.59667 35.2552 7.31968 39.8301 6.1766C39.6667 12.6166 38.5001 27.6666 27.0901 32.5199Z" fill="#6B7280"/>
</svg>
